PathFileType	3	(X/Y/Z)	walking_3__view1_aligned.trc
DataRate	CameraRate	NumFrames	NumMarkers	Units	OrigDataRate	OrigDataStartFrame	OrigNumFrames
100.0	100.0	18	19	mm	100.0	1813	6348
Frame#	Time	pelvis			neck			head			hip_left			hip_right			knee_left			knee_right			ankle_left			ankle_right			heel_left			heel_right			toe_left			toe_right			shoulder_left			shoulder_right			elbow_left			elbow_right			wrist_left			wrist_right			
		X1	Y1	Z1	X2	Y2	Z2	X3	Y3	Z3	X4	Y4	Z4	X5	Y5	Z5	X6	Y6	Z6	X7	Y7	Z7	X8	Y8	Z8	X9	Y9	Z9	X10	Y10	Z10	X11	Y11	Z11	X12	Y12	Z12	X13	Y13	Z13	X14	Y14	Z14	X15	Y15	Z15	X16	Y16	Z16	X17	Y17	Z17	X18	Y18	Z18	X19	Y19	Z19	
1813	18.12000	137.786266	929.550284	87.290102	88.208758	1481.768275	188.836112	85.018697	1566.764544	341.914526	213.583679	936.745298	97.239905	61.988998	922.355294	77.340174	185.003816	515.307011	190.191129	-7.466056	522.555207	222.352447	190.422669	107.481979	148.816817	-12.099565	243.272467	-1.624389	196.084116	54.392565	117.772616	-5.386143	230.373371	-47.673260	153.374140	74.869169	343.216664	-15.955805	104.996080	76.120919	273.509011	1450.850300	162.194828	-83.397491	1413.644250	132.546924	344.776957	1176.910309	96.384934	-118.232530	1125.932582	115.923240	382.444771	921.560142	127.039256	-125.958112	912.271262	239.466078
1814	18.13000	139.140164	929.726714	86.618377	88.992472	1481.990636	188.581824	85.387885	1567.263467	341.494508	214.950220	937.056481	96.466037	63.330326	922.396982	76.770530	185.304703	514.062652	180.908158	-5.930328	524.525771	229.620711	189.670467	106.881243	132.463205	-10.519642	243.789411	13.939432	195.148551	54.021883	100.606522	-3.767528	230.207992	-31.316084	153.532713	72.174755	327.353962	-15.105662	108.113594	93.309457	274.340316	1451.001041	163.410303	-82.161197	1413.686825	130.645815	347.591383	1177.102189	101.432878	-116.376899	1125.915582	110.331774	385.214569	922.606693	137.133398	-126.601141	909.417122	227.516378
1815	18.14000	140.494062	929.903144	85.946652	89.776185	1482.212998	188.327536	85.757073	1567.762389	341.074490	216.316761	937.367665	95.692169	64.671654	922.438670	76.200887	185.605589	512.818292	171.625186	-4.394599	526.496335	236.888975	188.918265	106.280506	116.109592	-8.939720	244.306356	29.503253	194.212987	53.651201	83.440428	-2.148914	230.042613	-14.958907	153.691285	69.480341	311.491261	-14.255519	111.231109	110.497996	275.171621	1451.151783	164.625778	-80.924903	1413.729400	128.744706	350.405809	1177.294068	106.480821	-114.521269	1125.898583	104.740308	387.984368	923.653243	147.227541	-127.244171	906.562982	215.566679
1816	18.15000	141.847960	930.079574	85.274927	90.559899	1482.435360	188.073248	86.126261	1568.261312	340.654472	217.683303	937.678848	94.918300	66.012981	922.480359	75.631244	185.906476	511.573932	162.342214	-2.858870	528.466899	244.157239	188.166062	105.679769	99.755980	-7.359797	244.823301	45.067073	193.277422	53.280518	66.274334	-0.530299	229.877235	1.398269	153.849857	66.785927	295.628559	-13.405377	114.348624	127.686534	276.002925	1451.302525	165.841253	-79.688609	1413.771976	126.843597	353.220234	1177.485948	111.528764	-112.665639	1125.881583	99.148842	390.754166	924.699793	157.321683	-127.887201	903.708842	203.616979
1817	18.16000	141.377076	930.094703	85.137174	89.664003	1482.500208	188.563029	84.987583	1568.408478	340.912093	217.420195	937.670593	94.428041	65.334287	922.518866	75.846029	185.567284	509.903658	154.515294	-2.644853	530.211893	251.609956	185.957690	105.095971	85.265033	-7.394738	242.550124	63.016316	190.618641	53.482104	51.113768	-0.703978	226.281675	20.275853	152.000630	63.154242	279.117592	-13.738392	115.923256	149.191451	275.067720	1451.429372	167.704504	-80.034107	1413.905816	125.860080	354.047729	1177.617458	117.255337	-112.069978	1126.356212	94.070799	390.234956	927.332050	169.333991	-128.824651	901.950825	190.995678
1818	18.17000	140.906192	930.109833	84.999420	88.768107	1482.565056	189.052811	83.848905	1568.555643	341.169714	217.157087	937.662338	93.937781	64.655592	922.557373	76.060815	185.228091	508.233384	146.688374	-2.430836	531.956886	259.062674	183.749317	104.512173	70.774087	-7.429678	240.276948	80.965559	187.959859	53.683689	35.953202	-0.877656	222.686116	39.153436	150.151403	59.522557	262.606625	-14.071407	117.497888	170.696367	274.132514	1451.556220	169.567755	-80.379606	1414.039656	124.876563	354.875223	1177.748969	122.981909	-111.474318	1126.830842	88.992756	389.715745	929.964307	181.346298	-129.762101	900.192808	178.374376
1819	18.18000	140.435308	930.124962	84.861666	87.872211	1482.629904	189.542592	82.710226	1568.702809	341.427335	216.893979	937.654083	93.447521	63.976898	922.595880	76.275600	184.888898	506.563110	138.861454	-2.216819	533.701880	266.515391	181.540944	103.928375	56.283140	-7.464618	238.003771	98.914803	185.301078	53.885274	20.792636	-1.051334	219.090556	58.031020	148.302176	55.890873	246.095657	-14.404422	119.072521	192.201284	273.197309	1451.683068	171.431006	-80.725104	1414.173496	123.893045	355.702717	1177.880479	128.708482	-110.878657	1127.305471	83.914713	389.196535	932.596564	193.358606	-130.699551	898.434790	165.753075
1820	18.19000	139.964424	930.140091	84.723912	86.976315	1482.694752	190.032373	81.571548	1568.849975	341.684955	216.630871	937.645829	92.957261	63.298204	922.634387	76.490386	184.549705	504.892836	131.034534	-2.002802	535.446874	273.968108	179.332572	103.344577	41.792193	-7.499559	235.730594	116.864046	182.642296	54.086859	5.632070	-1.225013	215.494997	76.908603	146.452949	52.259188	229.584690	-14.737437	120.647153	213.706200	272.262104	1451.809915	173.294256	-81.070602	1414.307336	122.909528	356.530212	1178.011990	134.435055	-110.282996	1127.780101	78.836669	388.677324	935.228821	205.370914	-131.637001	896.676773	153.131773
1821	18.20000	139.493540	930.155220	84.586158	86.080419	1482.759600	190.522154	80.432870	1568.997140	341.942576	216.367763	937.637574	92.467001	62.619509	922.672895	76.705171	184.210512	503.222562	123.207614	-1.788785	537.191867	281.420825	177.124199	102.760780	27.301247	-7.534499	233.457417	134.813289	179.983515	54.288444	-9.528496	-1.398691	211.899437	95.786187	144.603722	48.627503	213.073722	-15.070451	122.221785	235.211117	271.326898	1451.936763	175.157507	-81.416101	1414.441176	121.926011	357.357706	1178.143500	140.161628	-109.687336	1128.254730	73.758626	388.158114	937.861078	217.383222	-132.574451	894.918755	140.510471
1822	18.21000	139.022656	930.170349	84.448404	85.184524	1482.824448	191.011935	79.294191	1569.144306	342.200197	216.104655	937.629319	91.976741	61.940815	922.711402	76.919956	183.871319	501.552288	115.380694	-1.574768	538.936861	288.873542	174.915826	102.176982	12.810300	-7.569439	231.184241	152.762532	177.324733	54.490029	-24.689062	-1.572369	208.303878	114.663771	142.754495	44.995818	196.562755	-15.403466	123.796417	256.716033	270.391693	1452.063610	177.020758	-81.761599	1414.575016	120.942493	358.185201	1178.275011	145.888201	-109.091675	1128.729360	68.680583	387.638903	940.493335	229.395530	-133.511901	893.160738	127.889170
1823	18.22000	138.551772	930.185478	84.310650	84.288628	1482.889296	191.501716	78.155513	1569.291472	342.457818	215.841547	937.621064	91.486481	61.262120	922.749909	77.134742	183.532126	499.882014	107.553774	-1.360751	540.681854	296.326259	172.707454	101.593184	-1.680646	-7.604379	228.911064	170.711775	174.665952	54.691615	-39.849628	-1.746048	204.708318	133.541354	140.905268	41.364133	180.051788	-15.736481	125.371050	278.220950	269.456487	1452.190458	178.884008	-82.107098	1414.708856	119.958976	359.012695	1178.406521	151.614774	-108.496015	1129.203989	63.602540	387.119693	943.125591	241.407838	-134.449351	891.402721	115.267868
1824	18.23000	138.080888	930.200607	84.172896	83.392732	1482.954144	191.991498	77.016835	1569.438638	342.715439	215.578439	937.612809	90.996222	60.583426	922.788416	77.349527	183.192933	498.211741	99.726854	-1.146734	542.426848	303.778976	170.499081	101.009386	-16.171593	-7.639320	226.637887	188.661018	172.007170	54.893200	-55.010194	-1.919726	201.112759	152.418938	139.056041	37.732448	163.540820	-16.069496	126.945682	299.725866	268.521282	1452.317306	180.747259	-82.452596	1414.842696	118.975459	359.840189	1178.538032	157.341347	-107.900354	1129.678618	58.524496	386.600482	945.757848	253.420146	-135.386801	889.644703	102.646566
1825	18.24000	137.610004	930.215736	84.035142	82.496836	1483.018992	192.481279	75.878156	1569.585803	342.973059	215.315332	937.604554	90.505962	59.904731	922.826923	77.564313	182.853740	496.541467	91.899933	-0.932717	544.171842	311.231693	168.290708	100.425588	-30.662539	-7.674260	224.364710	206.610261	169.348389	55.094785	-70.170760	-2.093404	197.517199	171.296521	137.206814	34.100763	147.029853	-16.402511	128.520314	321.230782	267.586076	1452.444153	182.610510	-82.798094	1414.976536	117.991941	360.667684	1178.669542	163.067919	-107.304693	1130.153248	53.446453	386.081272	948.390105	265.432453	-136.324251	887.886686	90.025265
1826	18.25000	137.139120	930.230865	83.897389	81.600940	1483.083840	192.971060	74.739478	1569.732969	343.230680	215.052224	937.596299	90.015702	59.226037	922.865430	77.779098	182.514547	494.871193	84.073013	-0.718700	545.916835	318.684411	166.082336	99.841790	-45.153486	-7.709200	222.091534	224.559504	166.689607	55.296370	-85.331326	-2.267083	193.921640	190.174105	135.357586	30.469079	130.518885	-16.735526	130.094947	342.735699	266.650871	1452.571001	184.473760	-83.143593	1415.110376	117.008424	361.495178	1178.801053	168.794492	-106.709033	1130.627877	48.368410	385.562061	951.022362	277.444761	-137.261701	886.128669	77.403963
1827	18.26000	134.712357	929.942971	84.689045	79.305895	1482.895847	194.279746	72.357685	1569.278907	344.459551	212.800076	937.090314	90.227942	56.624655	922.795629	79.150169	181.628270	493.209427	80.654104	-2.158388	546.724841	323.227070	162.890236	102.727421	-54.961505	-10.169832	217.538534	238.717516	162.950378	59.545780	-95.575021	-5.221235	187.643866	205.103094	132.879628	30.109246	116.516109	-18.048819	130.038922	361.898644	264.308011	1452.700529	186.281424	-85.006303	1414.742645	117.722962	360.573465	1178.988270	173.036163	-108.110166	1130.553510	45.931990	382.696443	953.430164	287.492612	-139.996310	884.301039	67.740080
1828	18.27000	132.285593	929.655078	85.480702	77.010851	1482.707855	195.588431	69.975892	1568.824845	345.688422	210.547929	936.584329	90.440183	54.023273	922.725828	80.521240	180.741992	491.547661	77.235194	-3.598077	547.532847	327.769730	159.698136	105.613052	-64.769525	-12.630464	212.985534	252.875528	159.211150	63.795189	-105.818717	-8.175387	181.366092	220.032084	130.401669	29.749414	102.513333	-19.362112	129.982898	381.061589	261.965152	1452.830057	188.089087	-86.869013	1414.374914	118.437499	359.651752	1179.175487	177.277834	-109.511299	1130.479142	43.495569	379.830825	955.837966	297.540462	-142.730919	882.473408	58.076197
1829	18.28000	129.858830	929.367185	86.272359	74.715806	1482.519863	196.897117	67.594099	1568.370783	346.917293	208.295782	936.078343	90.652423	51.421892	922.656026	81.892310	179.855714	489.885895	73.816284	-5.037766	548.340853	332.312390	156.506036	108.498684	-74.577545	-15.091096	208.432534	267.033539	155.471921	68.044599	-116.062412	-11.129539	175.088318	234.961073	127.923711	29.389581	88.510557	-20.675405	129.926873	400.224534	259.622292	1452.959585	189.896750	-88.731723	1414.007183	119.152037	358.730039	1179.362704	181.519505	-110.912432	1130.404775	41.059149	376.965207	958.245768	307.588312	-145.465527	880.645778	48.412315
1830	18.29000	127.432066	929.079291	87.064015	72.420761	1482.331870	198.205803	65.212306	1567.916722	348.146164	206.043634	935.572358	90.864664	48.820510	922.586225	83.263381	178.969437	488.224129	70.397374	-6.477454	549.148859	336.855049	153.313936	111.384315	-84.385564	-17.551728	203.879534	281.191551	151.732693	72.294009	-126.306107	-14.083691	168.810543	249.890063	125.445752	29.029749	74.507781	-21.988698	129.870849	419.387480	257.279433	1453.089112	191.704413	-90.594434	1413.639452	119.866574	357.808326	1179.549921	185.761176	-112.313565	1130.330407	38.622728	374.099589	960.653571	317.636163	-148.200136	878.818148	38.748432
